<?xml version="1.0" standalone="no"?>
<!DOCTYPE svg PUBLIC "-//W3C//DTD SVG 20010904//EN"
 "http://www.w3.org/TR/2001/REC-SVG-20010904/DTD/svg10.dtd">
<svg version="1.0" xmlns="http://www.w3.org/2000/svg"
 width="160.000000pt" height="160.000000pt" viewBox="0 0 160.000000 160.000000"
 preserveAspectRatio="xMidYMid meet">
<metadata>
Created by potrace 1.11, written by Peter Selinger 2001-2013
</metadata>
<g transform="translate(0.000000,160.000000) scale(0.100000,-0.100000)"
fill="#000000" stroke="none">
<path d="M773 1172 c-108 -109 -128 -142 -190 -314 -60 -170 -88 -188 -119
-79 -9 34 -21 61 -26 61 -14 0 -97 -82 -120 -119 -12 -19 -32 -62 -43 -95 -12
-34 -52 -120 -88 -192 -37 -72 -67 -136 -67 -142 0 -6 -20 -32 -44 -59 -31
-33 -40 -49 -30 -51 20 -5 18 -11 -12 -35 l-26 -20 39 -13 c21 -8 73 -15 115
-18 43 -2 83 -8 90 -14 7 -5 54 -12 103 -15 50 -3 106 -8 125 -11 19 -3 71 -8
115 -10 44 -3 125 -9 180 -13 144 -10 466 -5 483 8 3 2 19 6 32 8 6 0 10 8 10
17 0 8 4 13 9 10 15 -9 118 29 170 63 13 8 37 16 54 17 49 4 50 17 6 64 -139
146 -305 434 -363 631 -23 75 -62 132 -86 125 -11 -4 -29 -9 -40 -12 -26 -7
-73 43 -152 164 -34 50 -65 92 -69 92 -4 0 -29 -22 -56 -48z"/>
</g>
</svg>
