<svg width="30" height="23" viewBox="0 0 30 23" fill="none" xmlns="http://www.w3.org/2000/svg">
<path opacity="0.5" d="M27.1875 0.5C27.9492 0.5 28.5938 0.792969 29.1797 1.32031C29.707 1.90625 30 2.55078 30 3.3125V20.1875C30 21.0078 29.707 21.6523 29.1797 22.1797C28.5938 22.7656 27.9492 23 27.1875 23H2.8125C1.99219 23 1.34766 22.7656 0.820312 22.1797C0.234375 21.6523 0 21.0078 0 20.1875V3.3125C0 2.55078 0.234375 1.90625 0.820312 1.32031C1.34766 0.792969 1.99219 0.5 2.8125 0.5H27.1875ZM27.1875 3.3125H2.8125V5.71484C4.16016 6.82812 6.79688 8.87891 10.7227 11.9258L11.25 12.3945C12.0117 13.0977 12.6562 13.5664 13.125 13.8008C13.8281 14.3281 14.4727 14.5625 15 14.5625C15.4688 14.5625 16.1133 14.3281 16.875 13.8008C17.3438 13.5664 17.9297 13.0977 18.75 12.3945L19.2773 11.9258C23.1445 8.9375 25.7812 6.88672 27.1875 5.71484V3.3125ZM2.8125 20.1875H27.1875V9.28906L20.3906 14.6797C19.3945 15.5 18.5742 16.0859 17.9883 16.4375C16.9336 17.082 15.9375 17.375 15 17.375C14.0625 17.375 13.0078 17.082 11.9531 16.4375C11.3672 16.0859 10.5469 15.5 9.55078 14.6797L2.8125 9.28906V20.1875Z" fill="#1AC0C6"/>
</svg>
