<svg width="23" height="31" viewBox="0 0 23 31" fill="none" xmlns="http://www.w3.org/2000/svg">
<path opacity="0.6" d="M22.1797 6.49219C22.707 7.07812 23 7.72266 23 8.48438V27.9375C23 28.7578 22.707 29.4023 22.1797 29.9297C21.5938 30.5156 20.9492 30.75 20.1875 30.75H3.3125C2.49219 30.75 1.84766 30.5156 1.32031 29.9297C0.734375 29.4023 0.5 28.7578 0.5 27.9375V3.5625C0.5 2.80078 0.734375 2.15625 1.32031 1.57031C1.84766 1.04297 2.49219 0.75 3.3125 0.75H15.2656C16.0273 0.75 16.6719 1.04297 17.2578 1.57031L22.1797 6.49219ZM19.9531 8.25L15.5 3.79688V8.25H19.9531ZM3.3125 27.9375H20.1875V11.0625H14.0938C13.6836 11.0625 13.332 10.9453 13.0977 10.6523C12.8047 10.418 12.6875 10.0664 12.6875 9.65625V3.5625H3.3125V27.9375Z" fill="#1AC0C6"/>
<text font-size="12px" x="3.5" y="22.5" fill="#1AC0C6" transform="rotate(0 5,20)">CV</text>
</svg>
